<svg width="30" height="30" viewBox="0 0 30 30" fill="none" xmlns="http://www.w3.org/2000/svg">
<path d="M18.75 6.00751L18.75 23.9925L8.47312 15L18.75 6.00751ZM17.5144 4.59564L7.23937 13.5881C7.03798 13.7641 6.87657 13.9812 6.76597 14.2247C6.65538 14.4682 6.59816 14.7326 6.59816 15C6.59816 15.2675 6.65538 15.5318 6.76597 15.7753C6.87657 16.0189 7.03798 16.2359 7.23937 16.4119L17.5125 25.4044C18.7294 26.4656 20.625 25.6031 20.625 23.9925L20.625 6.00751C20.6253 5.64705 20.5217 5.29415 20.3266 4.99105C20.1315 4.68796 19.8532 4.44752 19.525 4.29854C19.1967 4.14956 18.8325 4.09835 18.4759 4.15104C18.1193 4.20374 17.7855 4.35809 17.5144 4.59564Z" fill="#CB5E21"/>
</svg>
