<svg width="30" height="30" viewBox="0 0 30 30" fill="none" xmlns="http://www.w3.org/2000/svg">
<path d="M11.25 23.9925V6.00751L21.5269 15L11.25 23.9925ZM12.4856 25.4044L22.7606 16.4119C22.962 16.2359 23.1234 16.0189 23.234 15.7753C23.3446 15.5318 23.4018 15.2675 23.4018 15C23.4018 14.7326 23.3446 14.4682 23.234 14.2247C23.1234 13.9812 22.962 13.7641 22.7606 13.5881L12.4875 4.59563C11.2706 3.53438 9.375 4.39688 9.375 6.00751V23.9925C9.37469 24.353 9.47829 24.7059 9.67339 25.009C9.86849 25.3121 10.1468 25.5525 10.475 25.7015C10.8033 25.8505 11.1675 25.9017 11.5241 25.849C11.8807 25.7963 12.2145 25.6419 12.4856 25.4044Z" fill="#CB5E21"/>
</svg>
