<svg width="36" height="36" viewBox="0 0 36 36" fill="none" xmlns="http://www.w3.org/2000/svg">
<g clip-path="url(#clip0_530_114)">
<path d="M18 33.75C13.8228 33.75 9.81677 32.0906 6.86307 29.1369C3.90937 26.1832 2.25 22.1772 2.25 18C2.25 13.8228 3.90937 9.81677 6.86307 6.86307C9.81677 3.90937 13.8228 2.25 18 2.25C22.1772 2.25 26.1832 3.90937 29.1369 6.86307C32.0906 9.81677 33.75 13.8228 33.75 18C33.75 22.1772 32.0906 26.1832 29.1369 29.1369C26.1832 32.0906 22.1772 33.75 18 33.75ZM18 36C22.7739 36 27.3523 34.1036 30.7279 30.7279C34.1036 27.3523 36 22.7739 36 18C36 13.2261 34.1036 8.64773 30.7279 5.27208C27.3523 1.89642 22.7739 0 18 0C13.2261 0 8.64773 1.89642 5.27208 5.27208C1.89642 8.64773 0 13.2261 0 18C0 22.7739 1.89642 27.3523 5.27208 30.7279C8.64773 34.1036 13.2261 36 18 36Z" fill="#F07B3A"/>
<path d="M10.4536 10.4535C10.5581 10.3487 10.6822 10.2656 10.8189 10.2089C10.9556 10.1522 11.1021 10.123 11.2501 10.123C11.398 10.123 11.5446 10.1522 11.6812 10.2089C11.8179 10.2656 11.9421 10.3487 12.0466 10.4535L18.0001 16.4092L23.9536 10.4535C24.0582 10.3489 24.1823 10.2659 24.319 10.2093C24.4557 10.1527 24.6021 10.1236 24.7501 10.1236C24.898 10.1236 25.0445 10.1527 25.1811 10.2093C25.3178 10.2659 25.442 10.3489 25.5466 10.4535C25.6512 10.5581 25.7341 10.6823 25.7907 10.8189C25.8473 10.9556 25.8765 11.1021 25.8765 11.25C25.8765 11.3979 25.8473 11.5444 25.7907 11.6811C25.7341 11.8177 25.6512 11.9419 25.5466 12.0465L19.5908 18L25.5466 23.9535C25.6512 24.0581 25.7341 24.1823 25.7907 24.3189C25.8473 24.4556 25.8765 24.6021 25.8765 24.75C25.8765 24.8979 25.8473 25.0444 25.7907 25.1811C25.7341 25.3177 25.6512 25.4419 25.5466 25.5465C25.442 25.6511 25.3178 25.7341 25.1811 25.7907C25.0445 25.8473 24.898 25.8764 24.7501 25.8764C24.6021 25.8764 24.4557 25.8473 24.319 25.7907C24.1823 25.7341 24.0582 25.6511 23.9536 25.5465L18.0001 19.5907L12.0466 25.5465C11.942 25.6511 11.8178 25.7341 11.6811 25.7907C11.5445 25.8473 11.398 25.8764 11.2501 25.8764C11.1021 25.8764 10.9557 25.8473 10.819 25.7907C10.6823 25.7341 10.5582 25.6511 10.4536 25.5465C10.349 25.4419 10.266 25.3177 10.2094 25.1811C10.1528 25.0444 10.1236 24.8979 10.1236 24.75C10.1236 24.6021 10.1528 24.4556 10.2094 24.3189C10.266 24.1823 10.349 24.0581 10.4536 23.9535L16.4093 18L10.4536 12.0465C10.3488 11.942 10.2657 11.8178 10.209 11.6812C10.1522 11.5445 10.123 11.398 10.123 11.25C10.123 11.102 10.1522 10.9555 10.209 10.8188C10.2657 10.6821 10.3488 10.558 10.4536 10.4535Z" fill="#F07B3A"/>
</g>
<defs>
<clipPath id="clip0_530_114">
<rect width="36" height="36" fill="white"/>
</clipPath>
</defs>
</svg>
